<?xml version="1.0" encoding="utf-8"?>
<!-- Generator: Adobe Illustrator 25.2.3, SVG Export Plug-In . SVG Version: 6.00 Build 0)  -->
<svg version="1.1" id="Layer_1" xmlns="http://www.w3.org/2000/svg" xmlns:xlink="http://www.w3.org/1999/xlink" x="0px" y="0px"
	 viewBox="0 0 800 800" style="enable-background:new 0 0 800 800;" xml:space="preserve">
<style type="text/css">
	.st0{fill:#898D8D;}
	.st1{fill:#FFFFFF;}
	.st2{fill:#0C2340;}
	.st3{fill:none;}
	.st4{fill:#0A2240;}
	.st5{fill:#A7C6ED;}
</style>
<g id="SKC-Logo">
	<path class="st0" d="M687.5,107.6c-0.1-0.1-0.1-0.2-0.2-0.2C599.9,57.1,500.8,30.7,400,30.9h-0.2c-104.2,0-202.4,27-286.7,75.7
		c-0.2,0.1-0.3,0.3-0.4,0.5c-34.6,85.1-63.3,225-19.3,348.5C132,564.1,196.9,635.8,269.8,689.3s127.2,78.8,127.8,79
		c0.7,0.3,1.5,0.6,2.3,0.8c0.8-0.2,1.5-0.5,2.2-0.8c0.6-0.3,54.9-25.6,127.8-79s137.9-125.2,176.5-233.7
		C750.5,331.9,722.1,192.6,687.5,107.6z"/>
	<path class="st1" d="M393.6,750.5c-4.4-1.9-107.6-48-193.6-142.3C119.7,520,40.8,372.2,121.4,168.7l1.8-4.4l4-2.6
		c4.6-3.1,114.6-74.9,272.5-74.9s267.9,71.8,272.5,74.9l3.9,2.6l1.8,4.4c80.6,203.5,1.8,351.3-78.5,439.4
		c-86,94.3-189.2,140.4-193.6,142.3l-6.1,2.7L393.6,750.5z"/>
	<path class="st2" d="M664,174.8c-0.2-0.3-0.4-0.6-0.7-0.8c-7.9-5.1-114.5-72-263.7-72c-149.7,0-256.5,67.4-263.8,72.1
		c-0.2,0.2-0.4,0.4-0.6,0.7c-150,379.6,264.4,561.9,264.4,561.9S813.9,554.4,664,174.8z"/>
	<path class="st3" d="M494.9,401.1l-0.2,0.8c-0.1,0.4-0.1,0.8-0.2,1.1c0-0.1,0.1-0.2,0.1-0.3C494.8,402.2,494.9,401.7,494.9,401.1z"
		/>
	<path class="st1" d="M524.2,344.1c-1.3,0.4-0.4,1.7,0.3,2.5c1.2,1.3,8,9.8,9.2,10.9c1,1,1.1,1.8,3,1.5c1.9-0.6,3.7-1,5.6-1.4
		c2.9-0.5,5.9-0.9,8.9-1l1.6,0c5.6-0.2,11.2,0.2,16.7,1.2c20.2,3.4,22,20.1,22.1,20.8v0.5c0.2,3.8,0.4,11.8-8,18.3
		c-0.4,0.3-0.5,0.7-0.4,1.1c0.1,0.4,0.5,0.7,0.9,0.8c3.3,0.3,6.7,0.5,10,0.5h2.8c8-0.2,14-2,18-5.5s6.1-8.7,5.9-15.4
		c0-0.2-0.1-24.2-34.7-35.3c-10.5-3.4-21.7-4.1-29.3-4.1c-3.3,0-6.6,0.1-9.9,0.5c-4.3,0.3-8.6,0.9-12.9,1.7
		C530.5,342.5,527.7,343.2,524.2,344.1z"/>
	<path class="st1" d="M623.5,502.6c-0.4-0.3-0.9-0.3-1.3-0.1c-10.9,7.4-23.9,11.1-38.6,11.1c-9,0-18-1.4-26.6-3.9
		c-1.8-0.5-3.6-1.1-5.4-1.8c-2.6-1-5.2-2.1-7.7-3.4c-4.8-2.4-9.3-5.3-13.5-8.5c-1.7-1.3-3.2-2.6-4.7-3.9
		c-11-9.8-19.7-21.9-25.4-35.4c-4.9-12.3-8-22.8-7.8-37.3c0.1-5.5,0.7-11,2-16.3c0,0,0,0,0,0c0.1-0.4,0.3-1.8,0.3-1.8
		c0.1-0.7-0.1-1.3-0.6-1.8c-1-1.2-17-20.7-18-21.7c-0.9-0.8-1.4-2.4-2.6-2.1c-3.2,4.4-6,9.1-8.3,14.1c-0.3,0.7-0.7,1.5-1,2.2
		c-0.2,0.4-0.4,0.8-0.5,1.1c0,0.1,0,0.1,0,0.2c-4.6,11.3-6.8,24.2-6.4,38.3c0,0.4,1.6,40,30.6,67.1c7.7,7.2,16.3,13.3,25.6,18.2
		c1.8,0.9,3.5,1.7,5.3,2.5c7.2,3.3,14.7,5.8,22.5,7.5c2.3,0.5,4.4,0.9,6.3,1.2c4.8,0.7,9.6,1.1,14.5,1.1c2.1,0,4.3-0.1,6.4-0.3
		c35.8-1.3,51.7-16.4,55.4-25.2C623.9,503.4,623.8,502.9,623.5,502.6z"/>
	<path class="st1" d="M484.4,362.3l23.1,28.6c0,0.1,0.1,0.2,0.2,0.2l0.3,0.3c1.1,1.3,2.1,2.6,3.2,3.9l0.5,0.8
		c17.6,25.3,26.5,49.2,26.5,71c0,1.8-0.1,3.7-0.2,5.5l-0.1,1.4c-0.1,1.3-0.2,2.6-0.4,3.9v0.3c-0.1,0.6-0.2,1.1-0.2,1.7
		c-0.1,0.9-0.3,1.7-0.4,2.5c-0.7,3.3-1.5,6.6-2.5,9.8c-0.3,0.9,0.8,1.4,1.6,1.9c6.9,4.2,14.2,7.6,21.8,10.3c0.9,0.3,1.2,0.3,1.4-0.3
		c2.1-4.9,3.8-9.9,5.1-15c0-0.1,0.1-0.3,0.1-0.4c2.9-10.7,4.4-21.8,4.4-32.9c0-18.8-4.1-37.3-12.1-54.3
		c-4.9-10.1-10.7-19.7-17.3-28.7c-1.1-1.6-2.2-3.1-3.4-4.7c-0.3-0.4-0.6-0.8-1-1.2l-0.9-1.2c-1.2-1.5-2.4-3.1-3.7-4.6
		c-0.6-0.8-1.3-1.7-2-2.5c-0.9-1.1-1.8-2.1-2.7-3.2l-1.9-2.3c-1.1-1.4-2.3-2.7-3.4-4.1l-4.9-5.8c-6.9-8.2-13.8-16.5-20.6-24.8
		c-19.3-24.5-29.4-42.9-30-54.6c-0.4-6.8,1.9-12,7-16c5.5-4.3,11-6.1,19-6.1c5,0,10.6,2.8,14.3,7c3.6,4.4,5.3,8.5,5.3,12.3v0.5
		c0,3.8,0.1,11.8-8.5,18.1c-0.4,0.2-0.5,0.7-0.4,1.1c0.1,0.4,0.5,0.7,0.9,0.8c4.2,0.5,8.5,0.8,12.8,0.8c16,0,24.3-6.8,24.5-20.3
		c0.2-6.6-2.1-16.2-13.8-24.9c-8.9-6.6-20.5-10.8-30.9-11.4c-15.3-0.8-30.4,3.3-43.2,11.8c-12.3,8-18.8,20.2-18.8,35
		c0,16.2,9.2,36.3,27.4,59.8C468.4,342.6,476.4,352.4,484.4,362.3z"/>
	<path class="st1" d="M514.8,534.5c-1.7-0.8-2.2-0.8-3.2,0.7c-1.7,2.3-3.6,4.7-5.5,7c-18.4,21.7-42.1,40.2-70.4,55
		c-0.5,0.3-0.7,0.9-0.4,1.5c0.2,0.3,0.5,0.5,0.9,0.5h0.2c31.8-5.1,59.5-18.3,82.6-39.4c0.1-0.1,0.2-0.2,0.4-0.3l0.3-0.3
		c3.2-2.9,6-5.7,8.6-8.5c2.6-2.7,5-5.5,7.3-8.5c0.4-0.4,0-0.9-0.4-1C528.1,539.7,521.2,537.5,514.8,534.5z"/>
	<path class="st4" d="M494.4,403.1C494.4,403.1,494.4,403.1,494.4,403.1C494.4,403,494.4,403.1,494.4,403.1z"/>
	<path class="st1" d="M200.2,165.2c-13.9,6.2-27.4,12.6-40.8,20.2c-2.6,1.5-4.5,3.8-5.5,6.7c-1.1,3.8-2.5,8.4-3.6,12.2
		c-0.6,2-0.3,2.8,1.9,2.1c10.8-3.2,21.9-5.9,33.5-8.1c-0.5,2.1-1.3,5.4-1.8,7.4c-9.4,4.4-18.9,9.5-28.1,14.5c0.6-2.4,1.3-4.5,2-7
		c-4,2.1-8,4.6-11.9,6.9c-1.1,3.7-2,7.1-3,10.8c-0.8,2.5,0.6,3.1,3.3,1.6c14.1-8,28.9-15.9,43.6-22.4c2.9-1.3,5.1-3.7,5.7-6.1
		c0.9-4,1.9-8.5,2.8-12.5c0.4-1.9-0.1-2.8-2.2-2.4c-11.6,2-22.8,4.5-33.6,7.4c0.4-1.8,1.5-5,2-6.8c8.5-4.7,17.3-9,26.7-13.3
		c-0.5,2.1-1,4.1-1.5,6.1c4-1.9,8-3.6,12-5.4c0.8-3.2,1.5-6.5,2.2-9.7C204.3,164.8,202.9,164,200.2,165.2z"/>
	<path class="st1" d="M267.3,141.5c-15.9,4.4-31.5,9.7-46.8,15.8c-3.1,14.3-6.3,29.5-9.4,43.8c4.2-1.7,8.4-3.3,12.6-4.9
		c2.3-11.6,4.8-24.2,7.1-35.7c9.2-3.4,18.4-6.4,27.7-9.2c-0.7,4.4-1.6,9.7-2.3,14.1c-8.8,2.7-17.5,5.5-26.2,8.7
		c2.8,1.4,5.7,2.8,8.7,4.2c8-2.7,16.1-5.3,24.1-7.5c2.9-0.9,5-2.9,5.3-5.3c1-6.9,2.1-14.3,3.1-21.2
		C271.6,141.7,270.1,140.7,267.3,141.5z"/>
	<path class="st1" d="M339.4,127.6c-16.5,2-32.9,4.8-49.1,8.4c-2.9,0.7-4.9,2.6-5.2,5.1c-1.6,11.4-3.2,23.1-4.7,34.3
		c-0.4,2.3,1.3,3.4,4.3,2.7c16.9-3.8,34-6.8,51.2-8.9c3-0.4,5-2.1,5.3-4.4c0.9-11.1,1.7-22.5,2.6-33.8
		C344,128.6,342.3,127.3,339.4,127.6z M328.2,163c-11.5,1.6-22.8,3.5-34.1,5.9c1.1-8.6,2.3-18.4,3.3-27.1
		c10.5-2.2,22.1-4.2,33.3-5.7C329.9,144.8,329,154.5,328.2,163z"/>
	<path class="st1" d="M411,151.2c3,0.1,4.9-1.3,4.8-3.6c-0.1-6.3-0.2-12.9-0.4-19.3c0-2.4-2-4-4.9-4.1c-16.6-0.4-33.3,0.1-49.9,1.5
		c-0.5,13.8-1,27.6-1.6,41.1c4.4-0.3,8.7-0.6,13.1-0.9c0.3-10.9,0.6-22.6,0.9-33.7c9.9-0.6,19.8-0.7,29.7-0.7c0,4,0.1,8.2,0.1,12.2
		c-9.5-0.1-19,0.1-28.4,0.5c2.2,1.5,23.7,15.7,32.2,21.2c5.4,0.1,10.8,0.3,16.2,0.6v-0.4c-7.8-5.1-14.4-10-21.9-14.7
		C404.8,151,407.2,151.1,411,151.2z"/>
	<path class="st1" d="M426.4,132.3c7.5,0.4,15.1,1,22.7,1.8c0.8,11.2,1.6,23.2,2.4,34.2c4.3,0.4,8.6,1,12.9,1.5
		c-0.9-11-1.8-23-2.8-34.2c7.5,1,15.1,2.2,22.6,3.6c-0.3-2.7-0.4-4.8-0.7-7.6c-19-3.4-38.3-5.7-57.6-6.7
		C426.2,127.6,426.3,129.6,426.4,132.3z"/>
	<path class="st1" d="M499.5,175.1c4.4,0.9,8.8,1.8,13.1,2.8c-1.8-13.8-3.5-28.2-5.4-42c-4.1-0.9-8.3-1.8-12.4-2.6
		C496.4,147,497.9,161.3,499.5,175.1z"/>
	<path class="st1" d="M572.3,182.3c-12.3-13-24.7-26.9-36.8-39.3c-4.1-1.1-8.4-2.3-12.6-3.4c2.2,14.2,4.4,28.7,6.5,42.4
		c4.4,1.1,8.7,2.3,13,3.4c-1.5-9.4-3.2-19.8-4.8-29.4c12.3,12.5,25,26.7,37.5,39.8c4.1,1.4,7.8,2.9,12.2,4.6
		c-2.7-13.6-5.8-28.9-8.6-43c-4-1.6-8-3.1-12-4.5C568.5,162.5,570.5,173,572.3,182.3z"/>
	<path class="st1" d="M656.1,229.6c-1.9-7-4.3-16.1-5.4-20.1c-10.8-6.1-14.8-8.3-27.4-14.6l6.6,9.3c5.7,2.9,6.7,3.5,11.3,6
		c1,3.4,2.2,7.8,3,10.5c-10.5-5.9-17.9-9.5-28.4-14.5c-2.8-10.8-5-20.4-7.3-29.4c10.8,5,17.8,8.5,27.5,13.7c0.5,2.2,1.2,4.8,1.2,4.8
		l11.3,6.4c0,0-1.6-5.7-2.5-9c-0.7-2.8-2.6-5.1-5.1-6.5c-14.2-7.7-24.1-12.8-41.6-20.6c-2.7-1.2-4.2-0.2-3.6,2.3
		c2.7,11.8,5.6,24.9,8.3,36.6c0.6,2.5,2.7,4.4,5.6,5.7c15.1,6.7,27.5,12.9,42.3,21.2C655.5,233.3,657.2,233.3,656.1,229.6z"/>
	<path class="st1" d="M154.3,126.5c-3.2-1.6-6.4-3.2-9.5-4.7c-1.1,3.7-2.2,7.5-3.4,11.4c-2.2,1.2-4.5,2.4-6.7,3.6
		c3.1-9.6,6-18.6,8.7-27c2-1,3.9-1.9,5.8-2.9c-0.9,3.1-2.9,9.6-2.9,9.6l14-15c0,0,5.3-2.2,7.6-3.2c0,0,1-0.4,1-0.3
		c-4.9,5.3-12.8,13.7-18.1,19.7c3.8,1.9,6.5,3.2,10.5,5.3c0,0.1,0,0.1,0,0.2C158.7,124.5,157.1,125.2,154.3,126.5z"/>
	<path class="st1" d="M205.8,104.6c-0.4-1.2-0.7-2.3-1.1-3.5c-4.7,1.7-9.5,3.6-14.2,5.5c-1.1,1.7-2.1,3.4-3.2,5.2l-6.3,2.7
		c0,0,0,0,0-0.1c6.3-9.9,12.3-19.5,18.1-28.8c2-0.8,4.1-1.6,6.1-2.3c1.9,6.3,3.9,12.7,6,19.2c0,0,0,0,0,0.1L205.8,104.6z
		 M201.1,89.3c-2.4,4-4.9,8.1-7.5,12.2c3.4-1.3,6.7-2.6,10-3.9C202.8,94.9,201.9,92.1,201.1,89.3z"/>
	<path class="st1" d="M259.4,88.1l-12.7-11.2c-1,5.2-1.9,10.3-2.9,15.5l-6.2,1.9c1.5-7.7,3-15.2,4.5-22.7c2-0.6,3.9-1.1,5.8-1.7
		l12.6,10.8c0.8-4.9,1.6-9.8,2.4-14.6c2-0.5,3.9-0.9,5.8-1.4c-1.1,7.2-2.2,14.5-3.4,21.9C263.3,87.1,261.4,87.6,259.4,88.1z"/>
	<path class="st1" d="M320.2,76.2c-7.1,1-14.3,2.1-21.5,3.4c-1.4,0.3-2.2-0.3-2.1-1.6c0.2-1.8,0.4-3.5,0.6-5.3c2-0.4,4-0.7,6-1.1
		c-0.1,1.2-0.2,2.3-0.4,3.5c4.7-0.8,9.3-1.5,13.9-2.2c0.1-1,0.2-2,0.3-3c-5.9-0.8-11.9-1.5-17.8-2.2c-1.2-0.1-1.4-0.6-1.3-1.6
		c0.2-1.8,0.4-3.7,0.6-5.5c0.2-1.3,1.2-2.3,2.5-2.4c7-1.2,14-2.3,21-3.2c1.4-0.2,2.1,0.5,2,1.7c-0.1,1.6-0.3,3.2-0.4,4.8
		c-2,0.3-4,0.5-6,0.8c0.1-1,0.2-2,0.3-3c-4.6,0.6-9.1,1.3-13.7,2.1c-0.1,0.9-0.2,1.7-0.3,2.6c5.9,0.7,11.8,1.4,17.7,2.3
		c1.1,0.1,1.4,0.7,1.3,1.6c-0.1,2-0.3,3.9-0.5,5.9C322.4,75.1,321.4,76.1,320.2,76.2z"/>
	<path class="st1" d="M377.9,71c-0.6-1.2-1.3-2.4-2-3.6c-4.8,0.2-9.6,0.5-14.5,0.9c-0.8,1.3-1.5,2.6-2.3,3.8l-6.3,0.5l0,0
		c4.5-7.3,9-14.5,13.3-21.6c2.1-0.2,4.2-0.3,6.3-0.4c3.9,6.7,7.8,13.4,11.8,20.1v0.1C382.2,70.8,380,70.9,377.9,71z M369.1,55
		c-1.8,3.1-3.6,6.3-5.4,9.4c3.4-0.2,6.9-0.4,10.3-0.6C372.3,60.9,370.7,57.9,369.1,55z"/>
	<path class="st1" d="M440.8,72.1c-7.3-0.5-14.6-0.9-21.9-1.1c-1.4,0-2.4-0.8-2.4-2c0-1.7-0.1-3.4-0.1-5.2c2.1,0,4.1,0.1,6.2,0.2
		c0,1.2,0.1,2.3,0.1,3.4c4.7,0.2,9.4,0.4,14.1,0.7c-0.1-1-0.1-2-0.1-3c-6.3-2.1-12.6-4-18.8-5.9c-1.2-0.3-1.6-0.9-1.6-1.8
		c0-1.8-0.1-3.6-0.1-5.4c-0.1-1.2,0.8-1.9,2.2-1.9c7.1,0.3,14.2,0.7,21.3,1.2c1.2-0.1,2.3,0.8,2.4,2.1c0.1,1.6,0.2,3.1,0.3,4.7
		l-6-0.4c0-1-0.1-2-0.1-2.9c-4.6-0.3-9.2-0.6-13.9-0.8c0,0.8,0,1.7,0,2.5c6.3,1.9,12.5,3.9,18.8,6c0.9,0.2,1.6,1,1.6,1.9
		c0.1,1.9,0.2,3.9,0.4,5.8C443.1,71.5,442.2,72.2,440.8,72.1z"/>
	<path class="st1" d="M524.3,84.6c-7.6-1.8-15.2-3.3-22.9-4.7c-1.3-0.2-2.2-1.1-2.4-2.4c-0.6-5.8-1.3-11.5-2-17.3
		c-0.1-1.2,0.6-1.9,1.9-1.6c7.5,1.3,15,2.7,22.5,4.4c1.3,0.2,2.3,1.3,2.5,2.6c0.2,2,0.5,4,0.8,6c-2-0.5-4-0.9-6-1.3
		c-0.2-1.3-0.3-2.6-0.5-3.9c-5.1-1.1-10.1-2.1-15.2-3c0.5,4.5,1,9,1.6,13.4c5.1,0.9,10.2,2,15.3,3.1c-0.2-1.4-0.3-2.8-0.5-4.1l6,1.4
		c0.3,2.1,0.5,4.1,0.8,6.2C526.5,84.4,525.7,84.9,524.3,84.6z"/>
	<path class="st1" d="M556,92.6c-1.5-7.5-2.9-14.9-4.3-22.3c2,0.6,3.9,1.1,5.9,1.7c1.5,7.4,3,14.9,4.6,22.4
		C560.1,93.8,558,93.2,556,92.6z"/>
	<path class="st1" d="M599.6,89.6c1.5,6.3,3.1,12.8,4.7,19.4c-2.1-0.9-4.1-1.8-6.1-2.6c-1.5-6.4-3-12.8-4.4-19
		c-3.3-1.2-6.6-2.3-9.8-3.4c-0.3-1.4-0.6-2.8-0.9-4.2c8.2,2.7,16.9,5.8,26.1,9.3c0.4,1.6,0.8,3.1,1.3,4.7
		C606.8,92.3,603.2,90.9,599.6,89.6z"/>
	<path class="st1" d="M652,121.8c0.9,2.8,2,7.3,2.9,10.1c-2.1-1.1-4.1-2.3-6.2-3.3c-0.8-2.8-1.6-6-2.4-8.8
		c-5.5-7.1-11.1-15.1-16.2-21.7c0-0.1,0-0.1,0-0.2c2,0.8,6.4,2.8,8.4,3.7c3.8,5.1,7.5,10.5,10,13.6c2.3-2.5,5.2-6.3,5.2-6.3
		s3.5,1.8,5.8,3c0,0.1,0.1,0.1,0.1,0.2C657.1,115.3,654.5,118.6,652,121.8z"/>
	<path class="st5" d="M399.7,433.6v-52.1c-96.4,4.5-184.2,35.8-253.2,85.3c6.1,14.5,13.3,28.6,21.3,42.2
		C231.6,466.2,311.7,438.7,399.7,433.6z"/>
	<path class="st5" d="M119.6,335.5c53.3-35.8,115.2-61.9,182.6-75.2c-14.5-17.2-28.2-33-41.3-47.7c-46.4,12.4-90.8,31.3-132,56.1
		C123,293.2,119.9,314.3,119.6,335.5z"/>
	<path class="st5" d="M330.2,294c-77.7,12.3-148.6,41.7-207.7,83.8c1.7,12.1,4.2,24.8,7.5,38.8c1,4.4,2.1,8.7,3.4,13
		c65.5-46.9,147.1-77.9,236.9-86C356.3,326.1,342.9,309.5,330.2,294z"/>
	<path class="st5" d="M399.7,664.4c-22.1,2.7-43.9,7-65.4,12.8c21,13.9,42.8,26.5,65.4,37.7V664.4z"/>
	<path class="st5" d="M399.7,525.7v-50.2c-79.1,5.7-151.4,29.8-210,67c9,12.3,18.7,24.4,29.3,36.3
		C270.7,550.2,332.5,531.3,399.7,525.7z"/>
	<path class="st5" d="M399.7,618.1v-48.3c-54.8,5.4-105.6,19.7-149.7,41c12.8,12.2,25.9,23.3,38.7,33.5
		C324.3,630.8,361.7,622,399.7,618.1z"/>
</g>
</svg>
